<svg width="24" height="24" viewBox="0 0 24 24" fill="none" xmlns="http://www.w3.org/2000/svg">
<path d="M17.5 11.497C18.9587 11.497 20.3576 12.0765 21.3891 13.1079C22.4205 14.1394 23 15.5383 23 16.997C23 18.4557 22.4205 19.8546 21.3891 20.8861C20.3576 21.9175 18.9587 22.497 17.5 22.497C16.0413 22.497 14.6424 21.9175 13.6109 20.8861C12.5795 19.8546 12 18.4557 12 16.997C12 15.5383 12.5795 14.1394 13.6109 13.1079C14.6424 12.0765 16.0413 11.497 17.5 11.497ZM17.5 13.497L17.41 13.505C17.3101 13.5233 17.2181 13.5715 17.1463 13.6433C17.0745 13.7151 17.0263 13.8071 17.008 13.907L17 13.997V16.497H14.498L14.408 16.506C14.3081 16.5243 14.2161 16.5725 14.1443 16.6443C14.0725 16.7161 14.0243 16.8081 14.006 16.908L13.998 16.998L14.006 17.088C14.0243 17.1879 14.0725 17.2799 14.1443 17.3517C14.2161 17.4235 14.3081 17.4717 14.408 17.49L14.498 17.498H17V20.001L17.008 20.091C17.0263 20.1909 17.0745 20.2829 17.1463 20.3547C17.2181 20.4265 17.3101 20.4747 17.41 20.493L17.5 20.501L17.59 20.493C17.6899 20.4747 17.7819 20.4265 17.8537 20.3547C17.9255 20.2829 17.9737 20.1909 17.992 20.091L18 20.001V17.497H20.504L20.594 17.49C20.6939 17.4717 20.7859 17.4235 20.8577 17.3517C20.9295 17.2799 20.9777 17.1879 20.996 17.088L21.004 16.998L20.996 16.908C20.9777 16.808 20.9293 16.7159 20.8573 16.6441C20.7853 16.5722 20.6931 16.5241 20.593 16.506L20.503 16.498H18V13.998L17.992 13.908C17.9739 13.8079 17.9258 13.7157 17.8539 13.6437C17.7821 13.5717 17.69 13.5233 17.59 13.505L17.5 13.497ZM13.925 2.001C14.317 2.00097 14.7023 2.10337 15.0426 2.29807C15.3829 2.49277 15.6664 2.773 15.865 3.111L16.679 4.498H18.75C19.6118 4.498 20.4383 4.84027 21.0477 5.44955C21.6572 6.05883 21.9997 6.88522 22 7.747V12.307C21.5539 11.8787 21.0492 11.5161 20.501 11.23L20.5 7.747C20.5 7.28287 20.3156 6.83775 19.9874 6.50956C19.6592 6.18137 19.2141 5.997 18.75 5.997H16.25C16.1193 5.99707 15.9908 5.96296 15.8773 5.89806C15.7638 5.83316 15.6692 5.73972 15.603 5.627L14.571 3.87C14.5048 3.75743 14.4104 3.66408 14.2971 3.59919C14.1838 3.5343 14.0556 3.50011 13.925 3.5H10.122C10.0126 3.50009 9.90448 3.52413 9.80532 3.57042C9.70616 3.61672 9.61833 3.68416 9.548 3.768L9.483 3.858L8.39 5.639C8.32298 5.74832 8.22904 5.83863 8.11717 5.90131C8.0053 5.96399 7.87923 5.99693 7.751 5.997H5.251C5.0211 5.99687 4.79343 6.04204 4.581 6.12992C4.36856 6.21781 4.17552 6.34669 4.01292 6.50921C3.85031 6.67173 3.72131 6.86469 3.63331 7.07707C3.5453 7.28946 3.5 7.5171 3.5 7.747V17.247C3.5 18.213 4.284 18.997 5.25 18.997H11.313C11.486 19.53 11.725 20.034 12.022 20.497H5.25C4.38805 20.497 3.5614 20.1546 2.9519 19.5451C2.34241 18.9356 2 18.109 2 17.247V7.747C2 6.88505 2.34241 6.0584 2.9519 5.4489C3.5614 4.83941 4.38805 4.497 5.25 4.497H7.33L8.205 3.073C8.40619 2.74522 8.68804 2.47448 9.02364 2.28663C9.35925 2.09879 9.7374 2.0001 10.122 2H13.925V2.001ZM12 7.497C12.9514 7.49693 13.8783 7.79825 14.6477 8.3577C15.4172 8.91716 15.9897 9.70599 16.283 10.611C15.783 10.706 15.303 10.858 14.85 11.06C14.6284 10.381 14.1717 9.8033 13.5621 9.43101C12.9525 9.05872 12.23 8.91624 11.5247 9.02921C10.8194 9.14218 10.1776 9.50318 9.71472 10.0472C9.25189 10.5913 8.99844 11.2827 9 11.997C9 13.427 10 14.622 11.338 14.924C11.178 15.3993 11.0739 15.8916 11.028 16.391C9.94789 16.1489 8.99486 15.5173 8.35107 14.6168C7.70727 13.7164 7.41785 12.6103 7.53812 11.5099C7.65839 10.4096 8.17991 9.39212 9.00302 8.65202C9.82613 7.91191 10.8931 7.50107 12 7.498V7.497Z" fill="#176980"/>
</svg>
