<svg width="41" height="41" viewBox="0 0 41 41" fill="none" xmlns="http://www.w3.org/2000/svg">
<path d="M22.2083 5.125C18.1306 5.125 14.2199 6.74486 11.3366 9.62823C8.45319 12.5116 6.83333 16.4223 6.83333 20.5H1.70833L8.35375 27.1454L8.47333 27.3846L15.375 20.5H10.25C10.25 13.8888 15.5971 8.54167 22.2083 8.54167C28.8196 8.54167 34.1667 13.8888 34.1667 20.5C34.1667 27.1112 28.8196 32.4583 22.2083 32.4583C18.9112 32.4583 15.9217 31.1087 13.7692 28.9392L11.3433 31.365C12.7671 32.7966 14.4602 33.9322 16.3249 34.7062C18.1897 35.4803 20.1893 35.8775 22.2083 35.875C26.286 35.875 30.1967 34.2551 33.0801 31.3718C35.9635 28.4884 37.5833 24.5777 37.5833 20.5C37.5833 16.4223 35.9635 12.5116 33.0801 9.62823C30.1967 6.74486 26.286 5.125 22.2083 5.125ZM20.5 13.6667V22.2083L27.7604 26.5133L29.0758 24.3096L23.0625 20.7392V13.6667H20.5Z" fill="url(#paint0_linear_14_463)"/>
<defs>
<linearGradient id="paint0_linear_14_463" x1="19.6458" y1="5.125" x2="19.6458" y2="35.875" gradientUnits="userSpaceOnUse">
<stop stop-color="#327480" stop-opacity="0.71"/>
<stop offset="1" stop-color="#2C8A9B"/>
</linearGradient>
</defs>
</svg>
