<svg width="41" height="41" viewBox="0 0 41 41" fill="none" xmlns="http://www.w3.org/2000/svg">
<path d="M23.6262 32.4583C23.371 32.4592 23.1188 32.4029 22.8882 32.2935C22.6576 32.1841 22.4545 32.0244 22.2937 31.8262L14.0424 21.5762C13.7912 21.2706 13.6538 20.8871 13.6538 20.4915C13.6538 20.0958 13.7912 19.7123 14.0424 19.4067L22.5841 9.15666C22.8741 8.80779 23.2908 8.5884 23.7425 8.54675C24.1942 8.5051 24.644 8.64461 24.9929 8.93458C25.3417 9.22455 25.5611 9.64123 25.6028 10.093C25.6444 10.5447 25.5049 10.9945 25.2149 11.3433L17.5787 20.5L24.9587 29.6567C25.1676 29.9074 25.3003 30.2128 25.3411 30.5366C25.3819 30.8604 25.3291 31.1891 25.1889 31.4839C25.0487 31.7786 24.827 32.027 24.5501 32.1997C24.2731 32.3724 23.9525 32.4621 23.6262 32.4583Z" fill="white"/>
</svg>
